<?xml version="1.0" encoding="UTF-8" standalone="no"?>
<!-- Created with Inkscape (http://www.inkscape.org/) -->

<svg
   version="1.1"
   id="svg1"
   width="551.74756"
   height="1037.0404"
   viewBox="0 0 551.74756 1037.0404"
   sodipodi:docname="man15c-new.svg"
   inkscape:version="1.3.2 (091e20ef0f, 2023-11-25)"
   xmlns:inkscape="http://www.inkscape.org/namespaces/inkscape"
   xmlns:sodipodi="http://sodipodi.sourceforge.net/DTD/sodipodi-0.dtd"
   xmlns="http://www.w3.org/2000/svg"
   xmlns:svg="http://www.w3.org/2000/svg">
  <defs
     id="defs1" />
  <sodipodi:namedview
     id="namedview1"
     pagecolor="#ffffff"
     bordercolor="#000000"
     borderopacity="0.25"
     inkscape:showpageshadow="2"
     inkscape:pageopacity="0.0"
     inkscape:pagecheckerboard="0"
     inkscape:deskcolor="#d1d1d1"
     showgrid="false"
     inkscape:zoom="1.046518"
     inkscape:cx="267.07615"
     inkscape:cy="233.63191"
     inkscape:window-width="1920"
     inkscape:window-height="1011"
     inkscape:window-x="0"
     inkscape:window-y="0"
     inkscape:window-maximized="1"
     inkscape:current-layer="layer2" />
  <g
     inkscape:groupmode="layer"
     id="layer2"
     inkscape:label="Layer 1">
    <path
       id="path1"
       style="display:inline;fill:#000000"
       d="m 254.58445,10.958571 c -4.29492,0.07183 -8.12775,1.027158 -15.67774,3.556641 -25.72041,8.61713 -46.11852,21.322869 -67.0957,41.792969 l -14.1875,13.845703 -4.01367,12.589844 c -3.96006,12.424594 -8.74002,34.224872 -10.37305,47.306642 -1.64314,13.16272 4.89272,44.90799 12.43555,60.40234 4.92273,10.11227 4.73402,12.13706 -1.13282,12.19336 -7.02229,0.0674 -9.73037,12.89718 -5.42578,25.70117 1.53819,4.57536 3.47652,11.51992 4.3086,15.43164 0.92049,4.32736 3.71573,10.332 7.13672,15.33399 3.09239,4.52156 7.92464,12.60526 10.73828,17.96484 3.8752,7.38177 6.27683,10.34054 9.9082,12.20313 2.6366,1.35235 6.0774,3.86848 7.64648,5.58984 4.20868,4.61708 9.27351,15.47789 10.99024,23.56836 0.82925,3.90805 3.30471,9.71551 5.5,12.90625 2.1953,3.19075 3.99023,7.15981 3.99023,8.81836 0,4.37844 -9.24621,19.20489 -17.96875,28.8125 -6.14376,6.76716 -12.16554,11.05791 -32.45312,23.125 -14.65575,8.71725 -26.96377,17.02478 -29.89844,20.18164 -7.03452,7.56713 -18.91333,32.46731 -23.00586,48.22461 -4.40406,16.95686 -9.907673,30.12546 -25.669921,61.41406 -9.053514,17.97153 -12.94228,27.14192 -13.314453,31.39844 -0.760749,8.70066 4.209656,35.67981 7.347656,39.88281 1.417598,1.89872 5.899343,5.39429 9.960938,7.76758 4.392287,2.56653 9.235816,6.89087 11.953125,10.67187 7.111095,9.8948 19.241155,22.45808 26.015625,26.94532 11.32772,7.50316 16.1499,5.37493 26.26367,-11.59375 5.56823,-9.34224 7.78611,-10.99414 14.76953,-10.99414 11.30595,0 12.42873,3.67707 8.72657,28.58789 -4.33618,29.1768 -3.44104,40.20507 3.7871,46.64648 3.6447,3.248 6.0713,11.72596 9.37891,32.76563 5.78416,36.79285 9.34965,84.75282 10.38086,139.66797 0.6825,36.34533 0.52909,41.66601 -1.20117,41.66601 -1.09096,0 -7.72779,-2.40068 -14.74805,-5.33398 -12.92725,-5.40149 -21.4058,-7.04676 -18.54492,-3.59961 0.79103,0.95313 6.84923,4.58518 13.46289,8.07226 6.61366,3.48712 12.35667,6.87782 12.76172,7.53321 1.57447,2.54751 -12.97078,-3.60845 -34.00391,-14.39063 -21.15176,-10.84299 -22.36597,-11.28559 -31.5,-11.47851 -9.56896,-0.20211 -13.83203,-1.95141 -13.83203,-5.67579 0,-1.03381 1.35,-2.39256 3,-3.01953 2.74141,-1.04168 2.59644,-1.20157 -1.66797,-1.85156 -2.56663,-0.39121 -8.53,-1.34403 -13.253903,-2.11719 -9.35614,-1.53132 -10.68787,-1.18319 -8.623047,2.25782 1.503437,2.50543 9.328549,6.56909 54.42383,28.25585 28.01145,13.47102 40.60107,20.64504 39.01367,22.23243 -0.33844,0.33844 -15.22823,-6.09102 -33.08789,-14.28711 -53.962498,-24.76429 -73.260207,-33.26367 -75.519532,-33.26367 -3.62283,0 -0.381599,2.09663 15.105469,9.77343 15.739573,7.802 97.172823,44.89258 98.562503,44.89258 0.45706,0 0.65298,-1.05065 0.4375,-2.33398 -0.26621,-1.58548 0.61876,-2.4761 2.76172,-2.7793 4.82324,-0.68244 6.479,1.83694 3.42382,5.21289 -3.85006,4.25429 -8.56927,3.02777 -38.57617,-10.02539 -41.96736,-18.256 -91.775488,-38.19078 -93.636717,-37.47656 -2.346905,0.90059 -2.12232,8.71975 0.46875,16.35156 1.190696,3.50712 5.994303,11.8713 10.675781,18.58594 10.526067,15.09748 15.422631,25.46034 19.751953,41.79883 3.517794,13.2758 6.33904,17.33203 12.050783,17.33203 4.15019,0 20.64479,5.50759 38.45898,12.83984 19.15928,7.88597 25.16898,10.97477 24.24805,12.46487 -0.94042,1.5216 -9.25511,-0.9448 -31.28516,-9.27932 -23.44812,-8.87098 -25.6618,-9.21709 -30.15625,-4.72266 -4.64188,4.6419 -2.65402,7.09952 3.08008,3.80859 4.00696,-2.29966 4.26796,-2.26501 15.875,2.10157 15.6134,5.87372 31.09995,13.00932 34.07227,15.69922 1.72013,1.5567 2.39648,4.1222 2.39648,9.0957 0,11.7325 3.27877,18.5372 11.33203,23.5117 2.89564,1.7886 6.58221,2.4766 13.35157,2.4766 8.50484,0 9.98767,-0.4239 16.37109,-4.7227 3.86026,-2.5997 11.75202,-9.4036 17.53906,-15.1211 8.17677,-8.0785 10.87509,-11.7036 12.10352,-16.2656 3.40943,-12.66167 10.7288,-22.55273 16.68945,-22.55273 1.9328,0 10.51031,2.7948 19.0625,6.21094 13.2765,5.30319 17.14816,6.27279 26.48242,6.63089 9.9731,0.3825 12.96832,1.2416 34.12696,9.789 12.7565,5.1533 24.19406,9.3692 25.41796,9.3692 1.22393,0 3.42323,-0.7482 4.88672,-1.6621 2.21687,-1.3845 4.04995,-1.1445 10.98242,1.4336 12.36078,4.5968 25.15165,8.2285 28.97852,8.2285 1.86007,0 5.77286,1.2843 8.69531,2.8554 7.0279,3.7781 26.94015,10.4786 31.14258,10.4786 5.10523,0 14.25101,-4.982 18.92774,-10.3086 3.68496,-4.1969 4.12738,-5.5088 3.55664,-10.5723 -0.9324,-8.2723 -7.28999,-17.8892 -24.71485,-37.38868 -22.22384,-24.86987 -20.52786,-22.24813 -28.28515,-43.73046 -3.61545,-10.01227 -8.68936,-33.97934 -14.5625,-68.78907 -8.59568,-50.94579 -9.29546,-60.09755 -10.75,-140.54492 -1.48993,-82.4026 -2.78893,-106.50846 -7.4043,-137.3125 -1.75982,-11.74532 -4.22808,-28.27044 -5.48438,-36.72266 l -2.28515,-15.36718 5.35156,-7.96485 c 8.10247,-12.06212 13.09202,-21.40538 18.49805,-34.63281 2.69738,-6.59997 5.60827,-12.73794 6.46679,-13.63867 1.23031,-1.29075 4.66402,-0.93465 16.20899,1.68164 8.05639,1.82573 18.15951,3.89124 22.45312,4.58789 6.59597,1.07021 8.82548,2.21938 14.37696,7.41211 8.24694,7.71404 17.15213,11.83598 23.13867,10.71289 5.95131,-1.11647 30.53072,-13.25736 37.97461,-18.75781 11.4678,-8.47382 55.70704,-54.66738 62.22461,-64.97266 3.72489,-5.88966 4.23544,-18.34281 1.10742,-27.02539 -1.05677,-2.93333 -1.91616,-7.43333 -1.91016,-10 0.0147,-5.92394 4.81783,-17.60386 10.38477,-25.25391 2.36936,-3.25594 5.57332,-10.15466 7.12109,-15.33203 1.54777,-5.17734 5.15078,-14.9324 8.00586,-21.67773 3.36252,-7.94423 5.47522,-15.29902 5.9961,-20.87695 0.73893,-7.91331 0.56315,-8.75641 -2.15821,-10.40235 -1.62877,-0.98512 -4.44513,-4.68904 -6.25781,-8.23047 -2.00743,-3.92186 -4.94754,-7.30914 -7.52148,-8.66601 -2.32426,-1.22524 -6.08222,-4.17721 -8.35157,-6.56055 -5.2096,-5.47126 -11.47556,-5.83403 -18.07226,-1.04492 -2.49178,1.80899 -5.85491,4.26167 -7.47266,5.44922 -4.10677,3.01471 -5.72461,1.4289 -5.72461,-5.60742 0,-7.05315 -4.78851,-31.6104 -7.10937,-36.46289 -1.06109,-2.21853 -2.68881,-3.33399 -4.86914,-3.33399 -6.49941,0 -6.81611,2.6686 -6.3125,53.33399 0.41543,41.79465 0.7235,47.31493 2.95507,52.88476 2.14227,5.34692 2.26605,6.97431 0.88086,11.59766 -0.88613,2.95761 -3.4228,7.1884 -5.63671,9.40234 -2.21395,2.21395 -8.08465,11.69578 -13.04688,21.07031 -18.86881,35.64665 -36.53143,56.71094 -47.55078,56.71094 -4.11945,0 -12.54589,-6.27466 -32.81641,-24.43359 -18.28151,-16.37715 -33.95583,-28.64213 -43.52734,-34.0586 C 370.645,366.34117 360.47668,357.70343 351.0571,343.93513 l -4.15039,-6.0664 6.48828,-8.34961 c 3.56888,-4.59263 8.15198,-11.76434 10.1836,-15.93555 3.19845,-6.5669 3.70266,-9.23222 3.75586,-19.875 0.0595,-11.89536 0.19347,-12.43144 4.21289,-16.66601 7.60971,-8.01714 10.00084,-15.46099 12.54101,-39.04297 1.84835,-17.15916 0.94994,-42.83465 -1.68945,-48.24805 -1.54621,-3.1713 -2.59998,-3.72767 -6.80078,-3.59766 -6.16165,0.19068 -5.88866,1.37145 -6.82031,-29.48632 -1.09988,-36.42923 -6.88569,-81.436975 -10.89649,-84.765629 -1.02431,-0.850103 -2.4742,-3.820053 -3.22266,-6.59961 -1.94568,-7.225803 -11.99227,-17.800475 -21.05468,-22.160156 -4.18191,-2.011801 -11.8042,-6.451948 -16.9375,-9.869141 -5.13334,-3.41719 -11.43337,-7.266619 -14,-8.552734 -2.56667,-1.286115 -7.83659,-4.488104 -11.71094,-7.115234 -5.82946,-3.952872 -8.47442,-4.860037 -15.33398,-5.259766 -4.55898,-0.265666 -11.95392,-0.800545 -16.4336,-1.189453 -1.68886,-0.146622 -3.1719,-0.22121 -4.60351,-0.197266 z m 27.38281,694.505859 c 5.63549,-0.11092 8.45931,6.76061 20.05469,41.7207 16.43344,49.5469 25.23847,80.77461 36.51171,129.48243 8.50253,36.73633 10.80135,48.83546 10.80079,56.85937 -8.7e-4,12.38052 3.72531,25.41675 9.25195,32.37109 4.88026,6.14105 7.98692,18.33328 5.45117,21.38868 -2.04331,2.462 -1.89536,2.4678 -9.26367,-0.35938 -3.70384,-1.42113 -6.68101,-3.68529 -8.01758,-6.09766 -2.15998,-3.89854 -6.91112,-6.76171 -26.50586,-15.97656 -6.73673,-3.16808 -12.0033,-6.63358 -13.69531,-9.00976 -1.65029,-2.31762 -7.13403,-5.98368 -13.7168,-9.16993 -11.5624,-5.59651 -40.80934,-16.47971 -41.75195,-15.5371 -0.30457,0.30457 2.4763,2.4166 6.17969,4.69531 3.70336,2.27872 6.73437,4.52544 6.73437,4.99219 0,0.46675 -3.0013,0.5613 -6.66797,0.20898 -3.66663,-0.35235 -6.66601,-0.46796 -6.66601,-0.25586 0,0.21209 2.4069,1.73782 5.34765,3.39063 5.77706,3.24686 5.59355,4.71197 -0.67187,5.39648 -2.80306,0.30624 -4.50942,1.5277 -5.73828,4.10352 -5.12583,10.74424 -6.42901,-3.20372 -4.45117,-47.66797 2.37207,-53.32759 5.38552,-82.0381 12.30859,-117.29297 2.15588,-10.97852 5.44221,-28.97858 7.30273,-40 5.5473,-32.86077 8.41369,-41.27997 14.58203,-42.82813 0.95365,-0.23935 1.81603,-0.39821 2.6211,-0.41406 z M 64.773899,893.65779 c 1.96267,0.009 5.226648,0.53931 8.341797,1.4082 7.832053,2.18457 101.395404,41.37721 112.126954,46.96875 l 6.08984,3.17383 -4.66601,0.0469 c -4.29427,0.0418 -25.00353,-7.63519 -44.66602,-16.55664 -11.06908,-5.02238 -21.83696,-8.69922 -25.47656,-8.69922 -1.68209,0 -3.72496,1.05065 -4.54102,2.33398 -1.25403,1.97214 -1.37223,1.79439 -0.75586,-1.14648 0.48818,-2.32925 -0.0345,-4.16583 -1.58203,-5.55664 -2.76129,-2.48173 -17.866623,-8.55414 -33.976559,-13.65821 -12.30496,-3.89852 -16.403223,-6.5953 -12.371094,-8.14258 0.311428,-0.11948 0.82234,-0.17495 1.476562,-0.17187 z m 2.013672,10.56641 c 2.818875,-0.0333 9.454976,1.86362 17.435547,5.11132 11.739357,4.77738 14.816389,7.41701 7.109375,6.09961 -17.566335,-3.00268 -19.752405,-2.17833 -6.666016,2.51368 38.765823,13.89906 108.666013,44.51456 108.666013,47.59375 0,2.73357 -8.47986,0.65892 -19.76562,-4.83399 -11.48783,-5.59123 -19.77158,-8.99352 -68.23438,-28.03906 -10.633288,-4.17882 -22.170973,-9.39432 -25.640622,-11.58985 -5.81642,-3.68049 -14.359375,-13.29366 -14.359375,-16.1582 0,-0.46117 0.515453,-0.68617 1.455078,-0.69726 z m 120.613279,14.47265 c 2.74527,-0.0298 5.93164,2.24615 5.93164,4.23633 0,1.71965 -1.76587,1.18988 -5.33203,-1.59961 -3.11706,-2.4382 -3.15557,-2.60902 -0.59961,-2.63672 z m -93.701169,24.58008 c 3.267899,-0.33059 18.077209,4.65946 37.632809,12.72461 33.14608,13.67018 52.98049,19.86755 42,13.12305 -4.878,-2.99622 -3.80245,-4.701 2.04102,-3.23438 4.19462,1.05279 7.78026,6.47273 6.64648,10.04492 -1.44998,4.56847 -7.88994,3.27137 -30.01953,-6.04492 -11.36664,-4.7852 -26.47489,-10.73269 -33.57226,-13.2168 -23.276291,-8.14673 -28.799649,-11.04952 -25.226566,-13.25781 0.113246,-0.07 0.280186,-0.11663 0.498047,-0.13867 z m 73.843749,0.94336 c 0.43101,0.018 1.0794,0.14644 1.95703,0.39648 5.83321,1.66191 20.39865,9.36492 20.89649,11.05079 0.84489,2.86108 -2.71753,1.82235 -12.65235,-3.6875 -8.51463,-4.72224 -12.52862,-7.85675 -10.20117,-7.75977 z m -29.81641,6.44727 c 3.03565,0 6.27344,1.44894 6.27344,2.80859 0,1.94475 -4.87314,1.35402 -6.66797,-0.80859 -1.35327,-1.63059 -1.28023,-2 0.39453,-2 z m 104.42579,10.66601 c 2.74802,0 15.17968,6.72437 15.17968,8.21094 0,0.61678 -0.1487,1.05686 -0.33203,0.97656 -0.18333,-0.0803 -2.85496,-0.64499 -5.9375,-1.25391 -3.08254,-0.60889 -6.83319,-1.7632 -8.33398,-2.5664 -3.24537,-1.73687 -3.63518,-5.36719 -0.57617,-5.36719 z m -108.18555,6.97656 c 0.53165,-0.0104 1.49438,0.14363 2.92187,0.48438 6.2057,1.48131 31.48752,11.14552 34.75,13.2832 1.66529,1.09114 3.02735,2.87003 3.02735,3.95313 0,2.55076 -0.90434,2.37118 -7.33399,-1.45899 -2.9333,-1.7474 -11.49023,-5.66099 -19.01562,-8.69531 -10.88676,-4.38966 -16.65345,-7.52111 -14.34961,-7.56641 z m 108.20312,2.38086 c 3.19118,0.0312 23.35006,8.31226 28.91797,11.87891 4.14644,2.65608 4.1685,2.71889 0.91211,2.71289 -6.65822,-0.0113 -27.18016,-8.41424 -30.59375,-12.52734 -1.46816,-1.76902 -1.35158,-2.08516 0.76367,-2.06446 z m 75.21094,21.32227 c 2.70896,0.0181 15.42408,6.05498 16.5332,7.84961 1.24048,2.00713 -0.13836,1.77073 -7.91406,-1.35547 -7.35471,-2.95692 -12.08038,-6.51724 -8.61914,-6.49414 z m -195.22851,13.35544 c -1.51349,0 -2.21009,0.4615 -1.89063,1.4199 0.96011,2.8803 8.65557,6.8254 19.67969,10.0899 5.53199,1.6381 11.15751,3.0118 12.50195,3.0508 5.36622,0.1568 0.75366,-3.5235 -10.54492,-8.4121 -9.13139,-3.9509 -16.41643,-6.1537 -19.74609,-6.1485 z"
       transform="translate(-58.73679,-10.954665)" />
    <path
       id="path2"
       style="display:inline;fill:#f4eed7"
       d="M 304.93015 80.169509 C 304.29486 80.276701 303.58781 80.889591 302.69577 81.964431 C 301.79898 83.045023 299.03806 84.309913 296.55906 84.774978 C 291.15171 85.7894 286.72045 90.450229 273.65866 108.87263 C 268.41131 116.27354 262.16133 123.97568 259.76999 125.98787 C 253.2292 131.49157 244.80959 130.19735 226.00046 120.79646 C 217.93381 116.76472 206.90675 112.18863 201.49656 110.62654 C 196.08635 109.06445 190.73189 107.43075 189.59812 106.99568 C 188.07161 106.4099 187.76535 106.79609 188.41452 108.48787 C 189.01727 110.0586 187.63549 112.56727 183.9946 116.51717 C 178.34066 122.65097 174.66648 129.94724 174.66648 135.0406 C 174.66648 136.77422 172.8843 139.87478 170.66648 141.99959 C 167.71217 144.82998 166.66648 147.05284 166.66648 150.50349 C 166.66648 154.76163 166.82603 154.95717 168.47312 152.70467 C 171.39105 148.71415 173.99075 151.13821 176.50241 160.19295 C 177.79525 164.85367 180.91068 173.42152 183.42624 179.23396 C 188.51599 190.99422 189.04275 196.38192 185.81882 203.70857 L 183.63718 208.66756 L 182.05124 201.33357 C 179.75777 190.72402 177.47467 184.44409 175.23288 182.58357 C 174.15267 181.68708 173.02217 181.20053 172.72116 181.50154 C 172.42017 181.80255 173.27088 188.63752 174.61179 196.69099 C 175.95271 204.74448 177.45052 214.18422 177.93991 217.66756 C 178.42933 221.15087 179.31381 223.99959 179.90476 223.99959 C 180.49571 223.99959 182.64018 221.45024 184.67038 218.33357 C 186.70059 215.21691 190.41968 210.11624 192.93601 206.99959 C 197.38395 201.49045 197.73117 201.33357 205.37741 201.33357 C 215.16471 201.33357 240.46374 204.79813 248.63523 207.2574 C 251.99769 208.26935 257.21964 211.32863 260.23874 214.05623 C 265.65384 218.94842 265.84308 219.00569 274.23288 218.22224 C 284.5311 217.26057 293.31177 213.55773 301.33249 206.79842 C 312.92199 197.03158 314.37556 196.62569 336.24265 197.02107 C 349.17005 197.25481 356.11864 196.88671 356.70554 195.93709 C 358.00716 193.83102 353.78377 189.75781 349.38718 188.87849 C 344.47749 187.89655 343.332 184.36546 340.66062 161.99959 C 337.86765 138.61567 334.72521 121.46031 332.39695 116.87849 C 330.71088 113.56051 330.71855 112.81618 332.45749 110.87849 C 333.63702 109.56419 334.16853 107.2491 333.76609 105.17342 C 333.19096 102.20699 333.71109 101.46199 337.2114 100.24177 C 341.61533 98.706561 343.15577 94.440651 338.90476 95.552321 C 337.40872 95.943543 334.28706 94.359225 330.77781 91.427321 C 324.35953 86.065006 323.66147 85.861316 321.33249 88.667556 C 317.83313 92.884045 310.64822 90.390795 308.02195 84.050368 C 306.84818 81.21667 305.98896 79.990856 304.93015 80.169509 z M 374.70945 193.49959 C 374.2829 193.49125 373.80323 193.89493 373.26023 194.66756 C 372.43187 195.84622 372.14361 200.22601 372.5571 205.33357 C 373.33125 214.89605 370.90968 231.15128 367.51804 239.16365 C 364.7569 245.68654 364.74566 251.80912 367.47898 258.64021 C 370.34914 265.81348 372.93984 265.5321 374.08054 257.92537 C 374.5815 254.58474 374.65196 249.75915 374.23679 247.20076 C 373.76938 244.32045 374.46769 239.46302 376.07077 234.4449 C 378.27695 227.53896 378.53317 224.11059 377.79929 211.26131 C 377.08803 198.80789 376.23282 193.52936 374.70945 193.49959 z M 279.74656 196.0992 C 280.16577 196.0883 280.65729 196.24921 281.21726 196.59529 C 282.92427 197.65028 283.124 206.54668 281.49851 209.11092 C 280.72695 210.32804 279.87142 208.89953 278.78366 204.57967 C 277.47903 199.39846 277.92997 196.14633 279.74656 196.0992 z M 268.70359 200.48201 C 268.90444 200.47501 269.11373 200.53131 269.32468 200.6617 C 271.09151 201.75366 271.06311 207.99959 269.29148 207.99959 C 268.53513 207.99959 267.571 207.09959 267.1489 205.99959 C 266.2523 203.66309 267.29759 200.53026 268.70359 200.48201 z M 330.89109 204.95076 C 325.72684 204.97936 321.48337 205.94951 316.10593 207.96052 C 306.68837 211.48246 306.00046 212.80156 306.00046 227.33357 C 306.00046 237.43966 308.30325 244.79415 311.79929 245.85701 C 316.77797 247.37062 346.06369 245.68572 350.97116 243.6031 C 360.87524 239.40009 364.0302 227.43066 358.57663 214.75349 L 355.82077 208.34724 L 345.57663 206.54646 C 339.48091 205.47541 334.90771 204.9285 330.89109 204.95076 z M 155.82859 208.61092 C 155.21721 208.60303 154.70379 208.76306 154.33445 209.1324 C 153.26215 210.20471 153.47813 211.28375 155.13523 213.11482 C 156.91829 215.08508 157.12339 216.3783 156.08445 219.11092 C 155.35328 221.03402 155.12668 226.64196 155.57859 231.63045 C 156.21831 238.69201 157.53163 242.70586 161.58835 249.99959 C 164.44347 255.13291 167.88042 260.26973 169.22507 261.41365 C 172.12992 263.88486 175.2538 269.78927 176.5864 275.32576 C 178.62593 283.7993 183.06929 284.8903 183.73679 277.08162 C 184.03556 273.5866 183.2607 271.32525 180.73679 268.32576 C 178.86525 266.10156 177.33249 263.81552 177.33249 263.24568 C 177.33249 262.67583 174.63249 259.62248 171.33249 256.46052 C 168.0325 253.29858 165.3195 249.65072 165.3032 248.35506 C 165.2869 247.05938 164.10053 244.50088 162.66648 242.66756 C 160.77593 240.25063 160.05125 237.21722 160.02976 231.63435 C 160.00316 224.7181 160.32575 223.81053 163.20359 222.71638 C 164.96569 222.04643 166.78577 220.88504 167.24851 220.13631 C 169.18701 216.99976 160.10826 208.6661 155.82859 208.61092 z M 315.79343 211.01912 C 316.83762 211.02212 318.31066 211.20617 320.44577 211.47615 C 329.83324 212.66318 347.08336 218.16359 350.76413 221.14412 C 352.68912 222.70288 353.47126 224.38245 352.93015 225.79256 C 351.87378 228.54538 347.54304 228.66311 345.33249 225.99959 C 342.43863 222.51268 337.36431 223.51184 335.84616 227.86677 C 334.14924 232.73462 328.65556 234.40367 320.92429 232.39998 C 319.59932 232.05659 317.96025 230.31553 317.28171 228.53084 C 316.60317 226.74615 314.53639 224.71138 312.68991 224.00935 C 309.25996 222.70528 308.36348 220.75665 310.56491 219.39607 C 311.24183 218.97772 312.19114 216.8293 312.67624 214.62068 C 313.27778 211.88189 313.49621 211.01324 315.79343 211.01912 z M 221.93015 211.71443 C 216.11456 211.74583 206.91178 214.26883 200.97898 217.74568 C 189.92162 224.22572 185.51182 234.01695 189.87351 242.39998 C 195.62244 253.44926 205.26502 256.56108 223.37937 253.21248 C 240.02155 250.136 245.70148 244.26464 245.89304 229.94099 C 246.04085 218.88802 243.47153 215.1178 235.02585 213.98787 C 231.52863 213.51998 227.16583 212.67394 225.33249 212.10896 C 224.43293 211.83174 223.27221 211.70718 221.93015 211.71443 z M 222.28757 218.66756 C 230.11457 218.66756 240.00046 226.57079 240.00046 232.82967 C 240.00046 236.15829 234.75973 243.36933 230.52195 245.87263 C 226.16868 248.44418 225.33249 248.51269 225.33249 246.29646 C 225.33249 245.35976 227.13251 243.01403 229.33249 241.08357 C 231.84405 238.87971 233.33249 236.28918 233.33249 234.12068 C 233.33249 230.21769 230.60402 229.52892 227.92624 232.75545 C 225.56438 235.60132 219.39725 238.66756 216.03366 238.66756 C 214.02678 238.66756 213.04766 237.56956 212.46726 234.66756 C 212.02726 232.46756 210.83741 230.66756 209.82273 230.66756 C 208.80805 230.66756 205.49255 232.46756 202.45554 234.66756 C 196.16567 239.22391 194.66648 239.57305 194.66648 236.48982 C 194.66648 230.94254 213.69106 218.66756 222.28757 218.66756 z M 274.00046 223.99959 C 272.25368 223.99959 270.45368 224.60024 270.00046 225.33357 C 269.50909 226.12862 271.12396 226.66756 274.00046 226.66756 C 276.87696 226.66756 278.49183 226.12862 278.00046 225.33357 C 277.54724 224.60024 275.74724 223.99959 274.00046 223.99959 z M 171.48484 228.40584 C 171.10964 228.3956 170.5998 228.82994 169.78952 229.64021 C 165.84827 233.58148 168.16385 246.45836 172.53366 244.89998 C 173.34026 244.61233 173.86437 242.04248 173.69773 239.18904 C 173.5311 236.3356 173.04565 232.557 172.6196 230.79256 C 172.22703 229.16679 171.96723 228.419 171.48484 228.40584 z M 277.15476 231.24568 C 275.40958 231.25768 273.3397 232.04493 270.86765 233.50349 C 267.91975 235.24281 259.53152 241.24916 252.22702 246.85115 C 237.37747 258.23964 227.79938 262.51031 214.66843 263.59334 C 203.52827 264.51218 195.82987 262.37705 189.43015 256.59529 C 184.76177 252.37769 181.33249 250.78064 181.33249 252.82381 C 181.33249 253.27695 183.65991 258.82762 186.50437 265.15779 C 189.34882 271.48796 194.51323 284.76758 197.97898 294.66756 C 210.09494 329.27707 216.55662 338.55075 236.77585 350.34724 C 241.96885 353.37699 249.38424 358.70165 253.25437 362.18123 C 265.3275 373.03601 278.52615 375.65415 290.04929 369.4781 C 293.18048 367.79989 298.94751 366.58252 306.43991 366.02107 C 312.7978 365.54463 319.5729 364.55598 321.4946 363.82185 C 325.22486 362.39681 344.73798 334.03218 349.68991 322.83748 C 354.38775 312.21726 355.66095 275.72118 351.77781 262.98982 C 349.99822 257.15523 347.92844 256.34567 334.66648 256.30232 C 326.83552 256.27672 320.52682 255.37695 314.25241 253.38826 C 309.2581 251.8053 303.25744 250.69497 300.91843 250.92146 C 296.76796 251.32336 296.63895 251.5355 295.53757 259.7574 C 294.78747 265.35694 293.71824 268.44768 292.34616 268.9742 C 288.9531 270.27623 286.92517 265.74245 286.04538 254.88631 C 284.6893 238.15271 282.39027 231.20964 277.15476 231.24568 z M 534.09617 234.01717 C 532.61592 234.13612 532.08535 238.02189 532.82859 244.66756 C 533.32067 249.06755 533.79348 268.86758 533.87742 288.66756 C 534.00813 319.49908 534.36236 325.50485 536.34812 330.50154 C 539.76295 339.09417 539.49731 353.2512 535.83445 357.90779 C 533.802 360.49163 533.33223 362.20032 534.16843 363.96443 C 535.56536 366.9115 543.62913 375.60117 553.19187 384.46443 C 559.86619 390.65055 560.27637 390.82975 562.69577 388.64021 C 564.08636 387.38175 566.19283 383.43521 567.37742 379.86873 C 568.56201 376.30225 569.33576 371.76747 569.09812 369.79256 C 568.73938 366.81125 569.31374 366.02772 572.47702 365.17732 C 577.06459 363.94401 580.95077 360.60604 583.46921 355.73591 C 585.62838 351.56054 585.94684 345.33357 584.00046 345.33357 C 583.26713 345.33357 582.66648 345.92178 582.66648 346.64021 C 582.66648 349.74042 558.79313 357.90358 556.48288 355.59334 C 556.1582 355.26866 557.1153 352.93107 558.60984 350.39802 C 562.53283 343.74904 563.55581 331.37192 560.73874 324.66365 C 557.85028 317.7854 559.02991 306.22159 563.47117 297.86873 C 567.1369 290.97443 567.6118 283.01806 564.58249 279.25545 C 562.83514 277.08513 562.36989 276.99045 561.69968 278.66756 C 556.24035 292.32884 538.38393 319.7512 537.59421 315.68709 C 537.34696 314.41466 539.37729 309.75897 542.10398 305.34138 C 547.03219 297.35704 547.04739 297.2801 544.95945 292.32185 C 543.73347 289.41054 542.52106 281.22821 542.04734 272.66756 C 541.09724 255.49801 538.22013 238.00908 535.88132 235.19099 C 535.18881 234.35657 534.58958 233.97751 534.09617 234.01717 z M 302.28562 270.52888 C 303.13132 270.59168 303.95012 271.34784 304.3032 272.99959 C 305.45616 278.3933 302.71532 284.74181 297.06687 289.75935 L 291.33249 294.8531 L 297.58835 294.26521 C 305.15651 293.55505 315.67638 287.68941 317.3696 283.23591 C 319.28394 278.20086 323.59137 279.20408 330.67038 286.33357 C 337.8344 293.54867 339.63628 299.4451 337.31491 308.06599 C 335.51289 314.7583 332.90953 314.3546 332.00046 307.24177 C 331.53868 303.6287 330.60399 301.88682 328.95945 301.57381 C 327.65361 301.32527 321.05228 303.84118 314.29148 307.1656 C 297.71453 315.31683 296.01423 315.62936 291.01804 311.42537 C 288.7794 309.54168 286.51354 307.99959 285.98288 307.99959 C 285.45221 307.99959 283.01411 309.75934 280.56491 311.90974 C 275.26632 316.56198 267.36279 318.08726 255.53757 316.73982 C 240.53074 315.02984 240.70309 315.00929 240.29343 318.66756 C 239.10092 329.31668 236.77818 330.64797 231.56882 323.66756 C 226.67689 317.11244 225.33249 313.9483 225.33249 308.98591 C 225.33249 303.85608 227.86728 301.08679 237.66648 295.49959 C 241.3612 293.39296 246.25904 288.82792 249.42624 284.5406 L 254.85398 277.19295 L 258.86765 282.73201 C 262.82999 288.20183 262.95689 288.25896 269.10593 287.3492 C 272.5307 286.84249 278.61172 285.28153 282.6196 283.88045 C 286.62752 282.47933 291.55645 281.33357 293.57273 281.33357 C 296.94744 281.33357 300.34201 277.9435 299.85984 275.05427 C 299.39117 272.24601 300.87612 270.42425 302.28562 270.52888 z M 573.34617 274.78474 C 572.91138 274.77247 572.44975 275.01956 571.95749 275.51521 C 570.99728 276.48204 569.00598 287.1051 565.7114 308.83357 C 565.14252 312.58545 565.42321 312.99959 568.51609 312.99959 C 570.40523 312.99959 572.47927 312.32459 573.12546 311.49959 C 573.77164 310.67459 575.34642 306.60851 576.62546 302.46248 C 578.649 295.90308 578.74393 293.69539 577.35593 285.46638 C 576.12924 278.1937 574.89898 274.82859 573.34617 274.78474 z M 584.56296 287.03865 C 583.70916 287.02302 583.29489 289.12484 583.68992 293.23591 C 584.10865 297.5938 583.59013 301.74913 582.19187 305.24373 C 581.01587 308.18283 580.34181 311.50476 580.69382 312.62654 C 581.04583 313.74833 581.61384 315.56756 581.95749 316.66756 C 582.93671 319.80194 585.07947 319.02467 587.29929 314.73201 C 589.69568 310.09791 589.84529 298.56422 587.59226 292.0992 C 586.41243 288.71371 585.31632 287.05244 584.56296 287.03865 z M 260.92234 294.73201 C 259.21348 294.73201 257.30904 295.15392 256.00046 295.99959 C 254.53814 296.94461 255.54385 297.29716 259.7446 297.31209 C 263.23977 297.32449 265.16778 296.81072 264.66648 295.99959 C 264.14382 295.15392 262.63119 294.73201 260.92234 294.73201 z M 597.94577 298.66756 C 595.21499 298.66756 593.50387 303.70111 592.47702 314.74959 C 591.52037 325.04295 593.44177 327.35969 596.5571 319.66756 C 597.52235 317.28422 598.68248 311.58291 599.13523 306.99959 C 599.81733 300.09439 599.61342 298.66756 597.94577 298.66756 z M 297.06296 322.03865 C 304.05105 322.11335 306.00046 324.34288 306.00046 330.01716 C 306.00046 334.43896 305.5177 335.40216 303.13523 335.74177 C 301.56007 335.9663 300.00975 335.36565 299.68796 334.40779 C 299.25432 333.11697 295.34188 332.66756 284.57663 332.66756 C 271.99623 332.66756 269.99332 332.36397 269.60984 330.40974 C 268.93659 326.97882 276.00961 324.03401 288.28171 322.63435 C 291.84547 322.2279 294.7336 322.01375 297.06296 322.03865 z M 228.68015 550.96443 L 211.34031 556.9781 C 201.80326 560.28614 189.08316 565.01871 183.07468 567.49568 C 177.06621 569.97264 170.83755 571.99959 169.23288 571.99959 C 165.53161 571.99959 154.66648 582.71608 154.66648 586.36677 C 154.66648 590.29632 167.11427 600.99443 173.79343 602.80427 C 176.84025 603.62986 180.08379 604.51703 181.00046 604.77693 C 183.9936 605.62557 182.75233 609.08296 179.00046 610.34724 L 175.33249 611.58162 L 178.66648 612.6949 C 186.65296 615.36133 222.39193 623.73368 226.33249 623.86091 C 229.28442 623.95621 230.66648 623.38668 230.66648 622.07576 C 230.66648 619.25071 225.69409 616.23913 217.00241 613.80037 C 211.04815 612.12969 209.33249 611.07161 209.33249 609.06795 C 209.33249 606.99637 209.92445 606.67533 212.33249 607.4449 C 213.98249 607.9722 218.2733 609.18318 221.8657 610.13435 C 225.45808 611.08552 229.0264 612.49427 229.79734 613.26521 C 231.86545 615.33332 242.07456 614.98529 243.90085 612.78474 C 245.71782 610.59544 244.97579 610.0004 238.77781 608.66951 C 236.27252 608.13155 233.10834 606.65096 231.7446 605.38045 C 230.38086 604.10994 226.8796 602.28366 223.96531 601.32185 C 221.05101 600.36005 218.66648 598.76932 218.66648 597.7867 C 218.66648 596.80407 219.04726 595.99959 219.51218 595.99959 C 222.21857 595.99959 231.54017 599.49164 232.66648 600.92732 C 234.87886 603.74741 247.03461 606.88651 248.26218 604.95466 C 250.15154 601.98135 249.36738 599.94621 245.80906 598.59334 C 239.42527 596.16623 228.00046 588.74218 228.00046 587.02107 C 228.00046 584.71797 230.55526 585.05186 235.33249 587.9781 C 239.87434 590.76016 252.03988 597.33357 252.64695 597.33357 C 252.86749 597.33357 253.40819 596.39605 253.84812 595.24959 C 255.43165 591.12299 250.9875 585.95934 241.26609 580.63045 C 231.00088 575.00345 226.52702 570.27381 229.06687 567.73396 C 230.12875 566.67208 231.50527 566.90993 234.0864 568.60115 C 238.22106 571.31028 255.33763 577.33357 258.90085 577.33357 C 262.58676 577.33357 262.08439 570.50395 258.12546 566.78474 C 256.36136 565.12745 249.01479 560.88898 241.79929 557.36677 L 228.68015 550.96443 z "
       transform="translate(-58.73679,-10.954665)" />
    <path
       id="path3"
       style="display:inline;fill:#b3b3b3"
       d="M 258.60007 28.685134 C 256.1697 28.602883 253.97423 30.308804 252.12546 33.763259 C 250.41836 36.953011 250.19697 37.001551 245.70945 35.12654 C 242.04253 33.594408 241.18191 33.551637 241.63523 34.925368 C 241.95128 35.883133 243.49544 37.314398 245.06687 38.105056 C 248.56729 39.866277 246.50002 42.667556 241.69968 42.667556 C 239.63394 42.667556 238.18478 43.759732 237.35398 45.944899 C 236.66833 47.748278 233.63327 50.862054 230.60984 52.862868 L 225.11374 56.499587 L 230.76804 59.386306 L 236.42429 62.271071 L 232.79343 63.183181 C 230.38462 63.787753 228.69774 65.424329 227.78366 68.046462 C 227.02574 70.220656 226.12019 71.999587 225.76999 71.999587 C 222.69836 71.999587 196.3265 60.284165 191.20945 56.646071 C 184.22763 51.682184 181.33249 50.865103 181.33249 53.860915 C 181.33249 56.524276 189.14675 63.019669 198.92234 68.482009 C 207.27173 73.147423 233.15714 82.600202 237.70554 82.644118 C 239.86889 82.665008 239.81061 82.191144 237.03952 77.292556 L 234.00046 71.919509 L 237.02195 69.605056 C 238.68377 68.331819 240.65898 65.057005 241.41257 62.327712 C 243.09386 56.238604 244.30169 55.571929 261.54929 51.222243 C 269.13101 49.310201 275.56786 47.519312 275.85398 47.241774 C 276.7575 46.365339 265.3987 32.104359 262.04929 29.909743 C 260.85743 29.128807 259.70479 28.722521 258.60007 28.685134 z M 279.10984 33.853102 C 279.06332 33.85117 279.02739 33.861333 279.00241 33.886306 C 277.89451 34.994209 289.57774 49.333571 291.58835 49.333571 C 291.81486 49.333571 292.00046 48.798137 292.00046 48.144118 C 292.00046 46.520741 280.55188 33.913013 279.10984 33.853102 z M 339.24656 61.579665 C 337.39031 61.590883 336.00046 63.474504 336.00046 66.718337 C 336.00046 70.191153 336.45829 70.783242 338.86374 70.425368 C 340.43885 70.191031 342.3785 68.960565 343.17429 67.690993 C 344.28485 65.919263 344.10875 64.869597 342.41452 63.175368 C 341.31982 62.080657 340.21887 61.573789 339.24656 61.579665 z M 168.47312 67.616774 C 167.84427 67.610853 167.21811 67.923049 166.40085 68.524978 C 164.3717 70.01949 164.92751 70.887694 171.73484 76.862868 C 187.85524 91.012652 194.72014 94.594059 196.55515 89.812087 C 198.0074 86.027589 193.60888 81.503673 183.63718 76.524978 C 178.33674 73.878556 172.79916 70.620197 171.33249 69.284743 C 170.09534 68.158272 169.28163 67.624387 168.47312 67.616774 z M 346.19968 72.843337 C 344.33932 72.766326 341.65604 76.206826 340.59031 80.476149 C 339.69253 84.0727 339.80131 84.199825 342.55124 82.728103 C 344.15356 81.870567 346.13958 79.690374 346.96335 77.882399 C 347.95835 75.698606 348.01594 74.147883 347.13327 73.265212 C 346.86067 72.992606 346.54419 72.857598 346.19968 72.843337 z M 202.25827 78.833571 C 200.22585 78.750003 201.55878 82.843674 204.33249 83.958571 C 208.11925 85.48066 214.66648 85.675872 214.66648 84.267165 C 214.66648 83.681151 212.41647 82.397937 209.66648 81.413649 C 206.91648 80.42936 203.91713 79.343027 203.00046 79.00154 C 202.71605 78.895588 202.46853 78.842216 202.25827 78.833571 z M 349.82859 81.899978 C 349.02851 81.930726 349.28413 83.068395 351.29343 85.288649 C 352.95153 87.120824 353.44341 89.112965 352.90476 91.806228 C 352.47809 93.939552 352.52187 96.077636 353.00046 96.556228 C 354.92212 98.477892 358.02403 96.429049 358.42234 92.976149 C 358.73075 90.302551 357.7204 88.182416 354.69577 85.15779 C 352.48333 82.945343 350.62866 81.869229 349.82859 81.899978 z M 162.43796 82.983962 C 162.3777 82.986947 162.31704 82.997231 162.25632 83.017165 C 160.56003 83.574012 159.34494 92.371337 160.53562 95.474196 C 161.58404 98.20631 163.69165 97.738701 164.70359 94.550368 C 165.91045 90.74787 164.306 82.891413 162.43796 82.983962 z M 337.32859 113.33357 C 335.94279 113.33357 336.9836 117.01743 339.15866 119.81209 C 341.15943 122.38278 341.84919 119.45521 340.03952 116.07381 C 339.23284 114.56649 338.0131 113.33357 337.32859 113.33357 z M 346.00046 136.66756 L 345.59616 144.45076 C 345.13195 153.40921 347.52143 166.66756 349.60007 166.66756 C 350.54164 166.66756 350.69974 163.89437 350.07663 158.33357 C 349.56305 153.75025 348.4372 147.00024 347.57273 143.33357 L 346.00046 136.66756 z "
       transform="translate(-58.73679,-10.954665)" />
    <path
       id="path4"
       style="display:inline;fill:#ffeeaa"
       d="M 223.88913 350.66756 C 220.08332 350.66756 224.69305 365.34644 240.01218 401.99959 C 249.06206 423.6527 252.51626 430.66756 254.12741 430.66756 C 254.53018 430.66756 258.95216 422.11755 263.95554 411.66756 C 278.79693 380.67009 278.62793 381.33357 271.7114 381.33357 C 266.43635 381.33357 260.65934 378.12056 252.00046 370.37068 C 244.35473 363.52758 226.00678 350.66756 223.88913 350.66756 z M 335.44968 359.98787 C 334.24513 360.07451 332.28389 361.62131 329.41843 364.57771 C 324.6665 369.48047 315.84013 373.8457 307.56101 375.38631 C 304.75246 375.90893 302.12885 377.18059 301.73288 378.21248 C 300.62053 381.11122 320.92308 421.33357 323.49851 421.33357 C 323.8495 421.33357 324.96775 419.34201 325.98484 416.90779 C 327.95942 412.18193 335.13754 378.63692 336.66452 366.99959 C 337.29712 362.17849 336.99839 359.87647 335.44968 359.98787 z M 527.9282 369.33357 C 525.43973 369.33357 526.73475 375.17211 530.26609 379.87459 C 539.25435 391.84372 562.00131 413.33357 565.6821 413.33357 C 566.47517 413.33357 568.21993 412.3402 569.56101 411.12654 C 570.90209 409.91289 572.00046 408.46845 572.00046 407.91756 C 572.00046 407.36668 569.1498 404.84656 565.66648 402.31599 C 562.18314 399.78543 552.55178 391.32986 544.26218 383.52498 C 535.97259 375.7201 528.62193 369.33357 527.9282 369.33357 z M 308.00632 411.99959 C 306.04388 411.99959 302.66648 420.27052 302.66648 425.07771 C 302.66648 433.65309 310.90426 451.99959 314.75437 451.99959 C 315.51472 451.99959 317.0309 449.86066 318.12351 447.24568 C 319.89495 443.00602 319.88095 441.59832 317.99851 434.24568 C 315.38344 424.0314 309.9794 411.99959 308.00632 411.99959 z M 273.60788 413.33357 C 271.76281 413.33357 268.60592 417.40407 265.3364 423.99959 C 263.70053 427.29958 260.92972 431.90933 259.18015 434.24373 C 256.84482 437.35968 256.00046 440.21431 256.00046 444.9781 C 256.00046 456.56916 261.40394 457.93131 268.45359 448.11873 C 275.14558 438.80395 278.66648 431.41244 278.66648 426.67732 C 278.66648 421.98498 275.38677 413.33357 273.60788 413.33357 z M 151.72898 576.1324 C 151.56288 576.04726 151.02119 576.69514 149.95163 577.99959 C 146.10978 582.68516 132.00046 616.18194 132.00046 620.61677 C 132.00046 624.17946 133.18422 622.88722 137.1489 614.99959 C 140.8574 607.62162 149.4189 585.56672 151.25241 578.66756 C 151.68575 577.03699 151.89508 576.21754 151.72898 576.1324 z "
       transform="translate(-58.73679,-10.954665)" />
    <path
       id="path5"
       style="display:inline;fill:#c87137"
       d="M 214.45945 350.0699 C 213.92207 350.0804 211.82707 352.54077 209.60007 355.80427 C 204.55923 363.19127 202.65036 372.5356 202.75046 389.33357 C 202.84556 405.29817 204.39215 408.93021 213.74851 415.15388 L 221.49656 420.30818 L 214.7739 426.48787 C 206.5679 434.03031 205.26088 438.2275 209.56882 443.20271 C 212.03798 446.05433 215.10058 447.29032 224.66648 449.29646 C 237.90259 452.0723 245.07109 452.5486 247.77976 450.83162 C 250.15616 449.32526 249.62779 447.5974 234.26218 406.66756 C 227.24197 387.96757 220.07397 367.72995 218.33445 361.69685 C 216.59491 355.66376 214.89024 350.44601 214.54538 350.10115 C 214.52383 350.0796 214.49527 350.0692 214.45945 350.0699 z M 194.46921 378.66756 C 193.83158 378.66756 185.05631 384.21626 174.96921 390.99959 C 164.88211 397.7829 151.64814 405.99529 145.56101 409.24959 C 133.77723 415.5494 129.34282 420.05068 123.49851 431.64021 C 118.31701 441.91531 116.04219 453.50801 116.01999 469.75349 C 116.00019 484.22495 114.80095 489.33357 111.42429 489.33357 C 107.83188 489.33357 101.31544 498.92947 92.211399 517.62849 C 80.532389 541.61632 78.666477 547.24881 78.666477 558.50154 C 78.666477 569.63334 80.99986 577.76253 86.478977 585.72615 C 91.033394 592.34576 118.31822 621.33357 119.9946 621.33357 C 120.5642 621.33357 121.9821 619.32541 123.14695 616.87068 C 124.31179 614.41594 127.3271 607.06528 129.84616 600.5367 C 132.36524 594.00811 136.58041 584.05673 139.21335 578.42146 C 141.84632 572.78621 144.00046 567.91238 144.00046 567.59138 C 144.00046 567.27038 141.75046 566.64048 139.00046 566.19295 C 136.25046 565.74541 131.17676 563.86921 127.72702 562.02302 C 120.16521 557.97619 118.01028 557.88687 110.47898 561.30427 C 99.319612 566.36797 95.145107 563.09443 102.75241 555.24568 L 107.18991 550.66756 L 101.70359 550.66756 C 95.578809 550.66756 92.000462 549.63757 92.000462 547.87654 C 92.000462 547.23222 95.621869 544.87712 100.04929 542.64216 C 104.97573 540.15532 108.55876 537.37182 109.28171 535.47029 C 110.56236 532.10194 113.1513 530.66756 117.94577 530.66756 C 119.62933 530.66756 121.70039 529.82909 122.54929 528.80623 C 123.48363 527.68041 124.57465 517.26207 125.31296 502.40388 C 126.53087 477.89397 128.25977 468.10407 130.6782 472.01716 C 131.33341 473.07731 132.24201 476.15184 132.69773 478.8492 C 133.15344 481.54654 134.34312 484.85957 135.34226 486.21052 C 137.03703 488.50206 137.29001 488.35321 139.11374 483.99959 C 140.18892 481.43292 142.6559 472.13355 144.59421 463.33357 C 146.53253 454.53359 149.02542 444.1233 150.13523 440.19881 C 151.94428 433.80167 152.45576 433.15801 155.07663 433.98006 C 163.64323 436.66698 184.2309 441.46377 190.33249 442.1949 L 197.33249 443.03474 L 197.35398 436.51716 C 197.37918 428.47667 198.0798 427.33582 204.71335 424.54646 C 209.57336 422.50287 209.78924 422.2044 207.38523 420.82966 C 205.94697 420.0072 203.09631 417.72938 201.05124 415.76912 C 197.64784 412.50685 197.33138 411.37701 197.32077 402.43513 C 197.30597 389.92388 195.95584 378.66756 194.46921 378.66756 z M 521.47898 383.84529 L 508.26218 403.60896 C 500.99224 414.4791 491.89169 426.82181 488.03952 431.0367 C 480.19324 439.62178 480.16328 439.88469 485.44773 454.02107 C 488.86493 463.16245 488.29211 468.63731 483.76609 470.07381 C 480.18067 471.21176 477.33249 467.79811 477.33249 462.35896 C 477.33249 458.43918 473.07546 448.82205 470.68601 447.34529 C 469.84863 446.82776 469.33249 448.78181 469.33249 452.4781 C 469.33249 459.68691 468.32502 462.66756 465.88718 462.66756 C 463.23912 462.66756 460.36494 457.63716 458.67038 450.04256 C 457.85751 446.39951 456.01644 441.51552 454.57859 439.18904 C 451.71081 434.54887 437.61682 421.93987 436.52195 423.03474 C 436.14586 423.41082 435.30652 427.46892 434.65866 432.05232 C 432.79395 445.24468 429.65306 446.01088 426.68015 433.99959 C 419.86052 406.44642 415.95207 398.84774 407.5239 396.74373 C 398.62018 394.52101 376.52318 401.01594 369.66843 407.87068 C 367.64042 409.89869 363.34928 413.21942 360.13327 415.24959 C 353.76707 419.26839 353.73964 419.18619 363.05515 424.10701 C 370.10081 427.82881 373.33249 431.40824 373.33249 435.48787 C 373.33249 442.37363 358.82886 461.48441 322.85398 501.99959 C 309.83094 516.66622 296.28948 532.22716 292.76218 536.57966 L 286.34812 544.49373 L 287.29148 538.91365 C 288.05257 534.40879 287.84709 533.33357 286.22116 533.33357 C 282.27255 533.33357 264.00046 557.6683 264.00046 562.92732 C 264.00046 566.17626 266.23177 565.97028 268.06101 562.55232 C 268.87956 561.02285 269.87542 560.09721 270.2739 560.49568 C 270.67238 560.89416 271.14573 569.19531 271.32663 578.94295 C 271.55339 591.16194 272.32504 598.53089 273.80906 602.66756 C 276.19173 609.3092 276.70262 620.09626 274.72898 622.0699 C 270.39311 626.40577 267.85131 691.64278 271.83054 696.45466 C 274.09523 699.19326 271.59752 699.29361 300.39304 695.30623 C 334.09727 690.63912 348.10054 688.31733 361.81687 685.12459 L 373.63523 682.37459 L 372.72898 666.8531 C 370.51515 628.91154 367.37772 601.33357 365.27585 601.33357 C 364.71252 601.33357 361.73856 603.43292 358.66648 605.99959 C 355.59438 608.56624 352.5723 610.66756 351.95163 610.66756 C 348.89942 610.66756 349.848 607.6749 354.76023 601.80427 C 361.37982 593.89317 364.41858 588.4156 362.75632 587.38826 C 362.07729 586.9686 358.72047 590.26581 355.29734 594.71443 C 351.87418 599.16308 348.3827 602.57303 347.53757 602.29256 C 346.69244 602.01209 345.5935 598.14333 345.09616 593.6949 C 344.59883 589.24645 342.90176 582.61028 341.32663 578.94881 L 338.46335 572.29256 L 341.23093 566.86482 C 345.45415 558.58665 345.02788 557.13665 338.66648 558.15388 C 329.50228 559.6193 331.29803 555.87264 351.76999 530.80427 C 369.45381 509.15009 386.75038 483.63816 384.9614 481.8492 C 384.57855 481.46635 381.35554 482.61146 377.79929 484.39216 C 374.24303 486.17289 367.13379 488.99598 362.00046 490.6656 C 350.03604 494.55705 343.89601 497.66831 338.03757 502.81209 L 333.33249 506.94295 L 333.33249 503.10115 C 333.33249 494.83112 336.57018 492.87794 364.7407 484.14607 C 387.81783 476.99297 389.98097 475.43483 397.12351 460.81795 L 402.91257 448.96834 L 406.2114 454.81795 C 410.52614 462.46728 417.55284 469.70697 426.84031 476.07185 C 436.2814 482.54204 473.35279 503.11092 475.57273 503.11091 C 478.46244 503.11091 495.07944 495.68614 502.00046 491.30232 C 505.66713 488.97983 512.86715 482.63922 518.00046 477.21248 C 523.13379 471.78573 536.33251 458.13853 547.33249 446.88435 L 567.33249 426.42146 L 556.00046 415.81013 C 549.76715 409.97404 539.44914 400.39562 533.07273 394.52302 L 521.47898 383.84529 z M 345.60398 393.36091 C 340.51568 393.25469 338.74831 397.86657 334.48874 413.34724 C 327.64626 438.21507 317.16586 468.00971 307.84812 489.08357 C 303.53157 498.84628 300.00046 507.41737 300.00046 508.13045 C 300.00046 510.94201 305.44473 506.18394 324.1196 487.04841 C 341.17675 469.57053 369.33249 437.42176 369.33249 435.42537 C 369.33249 435.02602 364.98313 432.51711 359.66648 429.8492 C 347.54492 423.76655 342.66648 420.34671 342.66648 417.92927 C 342.66648 416.88977 346.25601 414.22587 350.64304 412.01131 C 362.86567 405.84134 363.45044 398.50682 352.01413 394.81209 C 349.36438 393.95603 347.30008 393.39632 345.60398 393.36091 z M 410.1782 407.99959 C 411.68939 407.99959 412.05291 409.44461 411.7407 414.23006 C 411.3106 420.82268 408.82161 423.35926 407.34616 418.71052 C 406.08127 414.72515 407.8595 407.99959 410.1782 407.99959 z M 267.1821 506.66756 C 266.16566 506.66756 265.24381 508.01756 265.13523 509.66756 C 265.02665 511.31755 264.86989 513.56756 264.78562 514.66756 C 264.56913 517.49332 259.76629 532.39461 258.55124 534.01131 C 256.91501 536.1884 253.24478 553.44662 254.11765 554.85896 C 256.08932 558.04919 260.57232 555.04262 264.34812 547.99959 C 266.51041 543.96626 270.22206 538.86755 272.59616 536.66756 L 276.91257 532.66756 L 275.22312 524.4117 C 273.16718 514.3713 269.6763 506.66756 267.1821 506.66756 z M 109.28757 595.99959 C 112.81086 595.99959 121.33249 603.64414 121.33249 606.80427 C 121.33249 610.96042 116.09943 609.81266 111.15671 604.57185 C 106.09851 599.2086 105.39973 595.99959 109.28757 595.99959 z M 262.02781 601.85506 C 260.71314 601.76526 259.19512 603.13183 257.58249 605.99959 C 248.48426 622.17915 244.2977 627.41703 237.8989 630.62068 C 230.29408 634.42813 215.49727 635.9182 210.71531 633.35896 C 205.9938 630.83209 183.61525 629.90057 181.81491 632.15584 C 179.86573 634.59755 176.19592 652.27392 175.89499 660.66756 C 175.33852 676.1887 175.894 680.01422 179.18015 683.30037 C 183.50351 687.62372 189.439 689.00145 214.17429 691.41756 C 225.81147 692.55425 239.2338 694.2785 244.00046 695.24959 C 255.22226 697.53576 258.30733 697.66022 259.41452 695.86873 C 259.9125 695.06299 260.8556 687.11167 261.51023 678.20076 C 262.16486 669.28984 263.59282 655.40023 264.68406 647.33357 C 267.10458 629.4407 267.42891 618.97928 265.85984 609.33357 C 265.07265 604.49443 263.71809 601.97051 262.02781 601.85506 z M 360.11765 610.66756 C 363.60772 610.66756 363.31421 613.57941 359.39695 617.80623 C 356.0828 621.38224 352.77654 622.33564 351.40281 620.11287 C 350.24668 618.24221 357.23559 610.66756 360.11765 610.66756 z M 360.7446 625.33357 C 361.80132 625.33357 362.66648 626.53292 362.66648 627.99959 C 362.66648 630.75998 359.45045 631.6797 358.00046 629.33357 C 356.88441 627.52776 358.38914 625.33357 360.7446 625.33357 z M 293.8696 626.66951 C 295.98192 626.45686 303.9127 637.28307 309.89304 649.10701 C 313.86688 656.96381 314.25603 663.24919 310.40281 657.33357 C 305.56598 649.90795 293.33249 628.6742 293.33249 627.70466 C 293.33249 627.03469 293.52395 626.70431 293.8696 626.66951 z M 360.7446 634.66756 C 361.80132 634.66756 362.66648 635.86691 362.66648 637.33357 C 362.66648 640.09398 359.45045 641.01366 358.00046 638.66756 C 356.88441 636.86174 358.38914 634.66756 360.7446 634.66756 z M 362.10593 656.46443 C 362.54995 656.46143 362.66648 657.09968 362.66648 658.50349 C 362.66648 660.13009 361.81605 661.33357 360.66648 661.33357 C 359.56648 661.33357 358.66648 660.80719 358.66648 660.16365 C 358.66648 659.52011 359.56648 658.24649 360.66648 657.33357 C 361.34529 656.7702 361.80213 656.46679 362.10593 656.46443 z "
       transform="translate(-58.73679,-10.954665)" />
    <path
       id="path6"
       style="display:inline;fill:#c87137"
       d="M 357.02195 696.51131 C 354.94574 696.76365 354.62231 701.97582 355.18991 714.66756 L 355.87546 729.99959 L 351.92429 715.40388 C 349.75066 707.37564 347.3186 700.40405 346.52195 699.9117 C 343.87359 698.27492 334.88072 701.56189 329.57077 706.10701 C 323.19494 711.56449 321.67464 715.66867 325.81101 716.25935 C 327.51112 716.50213 328.59933 717.56587 328.50046 718.88631 C 328.40916 720.10623 327.90581 726.25597 327.38132 732.55232 C 326.45019 743.7304 326.4951 743.99959 329.34421 743.99959 C 332.23006 743.99959 332.25242 744.16533 331.31687 759.13826 C 330.40015 773.80983 330.45853 774.30195 333.18601 775.01521 C 335.93297 775.73355 336.0006 776.39975 336.00827 802.87459 C 336.01897 839.84572 339.11622 858.25941 354.89499 915.13826 C 359.92837 933.28241 360.73604 935.15424 364.52781 937.46638 C 366.84421 938.87891 371.30833 940.04025 374.66648 940.1031 C 377.96646 940.1649 383.36648 940.98797 386.66648 941.93318 C 397.73317 945.10297 397.39521 945.48089 394.65085 932.99959 C 393.32059 926.94959 390.11072 913.60022 387.51804 903.33357 C 378.42943 867.34384 373.19331 836.06008 375.7407 832.96638 C 377.15211 831.25229 375.6524 766.44737 373.47312 734.9742 C 372.48452 720.69689 371.8168 717.55317 368.22702 710.26131 C 365.96483 705.66611 362.55831 700.44216 360.65476 698.65388 C 359.33583 697.41481 358.28403 696.66832 357.4614 696.52693 C 357.30716 696.50042 357.16036 696.49448 357.02195 696.51131 z M 205.29343 702.19881 C 204.35709 702.26495 203.23894 702.49608 201.87937 702.86091 C 196.04626 704.42619 190.66648 709.81571 190.66648 714.09529 C 190.66648 716.05139 192.14792 727.03149 193.95749 738.49373 C 199.10978 771.1294 199.91558 783.6928 201.97312 863.42927 C 203.03418 904.54902 204.29774 939.22472 204.78171 940.48591 C 206.02705 943.73122 208.32779 942.51098 209.62937 937.91365 C 210.23869 935.76143 211.345 923.15396 212.08835 909.89802 C 214.24552 871.42931 216.09973 872.82343 215.33835 912.34138 L 214.6782 946.68318 L 222.33835 942.46638 C 226.55208 940.14715 230.74981 937.32824 231.66648 936.20271 C 234.1516 933.15134 233.81727 927.85133 228.03952 878.87849 C 225.12742 854.19514 222.37994 830.81519 221.93406 826.92341 C 220.93106 818.16888 218.77499 818.408 216.01609 827.57771 C 214.13377 833.83396 214.0287 831.62596 214.44187 794.13826 C 214.88253 754.15683 213.07957 714.16003 210.50241 706.76716 C 209.28398 703.27197 208.10245 702.00037 205.29343 702.19881 z M 221.66062 704.04646 C 221.07993 704.09029 220.61126 704.27687 220.27195 704.61482 C 218.59654 706.28349 218.39609 745.30561 219.91648 773.78474 C 221.18387 797.52472 221.8823 802.95366 224.71726 811.06795 C 227.26552 818.36162 236.00046 859.70902 236.00046 864.4781 C 236.00046 864.94806 236.59916 865.33357 237.33249 865.33357 C 238.06583 865.33357 238.66785 864.88357 238.67038 864.33357 C 238.69418 859.17592 243.13273 817.61382 244.82859 806.66756 C 248.51415 782.87819 247.07519 741.08853 241.95163 723.10896 C 240.45048 717.84111 238.5236 714.9263 233.77195 710.74373 C 228.76856 706.33957 224.17694 703.85653 221.66062 704.04646 z M 362.0239 772.29646 C 362.0996 772.30926 362.18452 772.53552 362.2739 772.99959 C 362.5917 774.64959 362.5917 777.34959 362.2739 778.99959 C 361.9561 780.64959 361.69577 779.29957 361.69577 775.99959 C 361.69577 773.62771 361.83034 772.26372 362.0239 772.29646 z M 364.65476 790.45271 C 364.73466 790.46271 364.82411 790.63865 364.91843 790.99959 C 365.2538 792.28292 365.2538 794.38422 364.91843 795.66756 C 364.58306 796.95087 364.30906 795.90024 364.30906 793.33357 C 364.30906 791.48879 364.4505 790.42725 364.65476 790.45271 z M 197.33249 942.41951 L 197.33249 947.96443 C 197.33249 951.01393 198.0204 954.81967 198.85984 956.42146 C 201.74354 961.92403 208.22633 969.33357 210.15671 969.33357 C 211.21947 969.33357 215.21781 967.75188 219.04343 965.8199 C 222.86906 963.88791 228.46438 960.61928 231.47702 958.55427 C 239.31777 953.17986 242.52349 943.99959 236.55906 943.99959 C 235.48606 943.99959 229.83457 946.40024 224.00046 949.33357 C 218.16636 952.26691 212.84459 954.66756 212.17429 954.66756 C 211.50399 954.66756 207.89097 951.91051 204.14499 948.54256 L 197.33249 942.41951 z M 368.57273 945.54451 C 365.97399 945.56478 364.57089 946.20076 362.66062 947.76131 C 359.43249 950.39843 359.39982 950.59092 361.55906 954.23982 C 363.08214 956.81369 365.60671 958.49286 369.55906 959.56013 C 375.99014 961.29676 389.44408 961.77727 395.83249 960.49959 C 398.12416 960.04126 400.00046 958.85625 400.00046 957.86482 C 400.00046 953.99453 384.8536 947.25977 373.01804 945.86873 C 371.18327 945.65309 369.75397 945.53529 368.57273 945.54451 z "
       transform="translate(-58.73679,-10.954665)" />
    <path
       id="path7"
       style="fill:#ac9d93"
       d="M 196.8032 970.78084 C 195.66081 970.84174 194.09759 971.8095 192.41452 973.66756 C 188.89624 977.55163 180.10058 992.83841 173.33835 1006.8219 C 166.97166 1019.9873 166.53393 1025.3199 171.50241 1029.2281 C 175.1076 1032.0639 177.04186 1032.1136 195.66062 1029.857 C 198.7738 1029.4797 202.97445 1027.8405 204.9946 1026.2144 C 207.01475 1024.5884 211.06713 1021.6444 214.00046 1019.6715 C 228.01614 1010.2446 230.15759 1005.9079 231.16648 984.91951 C 231.87188 970.24491 230.89422 968.51692 224.38132 972.94099 C 217.84647 977.37997 213.41241 978.80274 210.6782 977.33943 C 209.30165 976.60272 206.03526 975.99959 203.42038 975.99959 C 199.55496 975.99959 198.66648 975.50167 198.66648 973.33357 C 198.66648 971.56524 197.94559 970.71993 196.8032 970.78084 z M 411.23288 973.79841 C 410.83328 973.80635 410.41961 973.85422 409.97312 973.92732 C 407.78775 974.28511 400.15045 974.95426 393.00046 975.41365 L 380.00046 976.24959 L 380.00046 981.51131 C 380.00046 987.71279 384.51447 997.33357 387.42429 997.33357 C 388.5444 997.33357 390.78196 998.74693 392.39695 1000.4742 C 394.01192 1002.2014 400.43314 1006.1642 406.66648 1009.2808 C 412.8998 1012.3973 419.19981 1015.6144 420.66648 1016.4312 C 422.98575 1017.7229 431.6186 1019.1673 440.8364 1019.8043 C 442.39661 1019.9121 444.46679 1019.0443 445.43601 1017.8765 C 446.92069 1016.0875 446.73032 1014.8729 444.22898 1010.1578 C 442.59607 1007.0797 439.77653 1002.9608 437.96335 1001.0054 C 436.15017 999.04997 434.66258 996.97416 434.65866 996.39216 C 434.65467 995.81016 429.99333 990.37163 424.29929 984.30623 C 416.15584 975.63167 414.0301 973.74287 411.23288 973.79841 z "
       transform="translate(-58.73679,-10.954665)" />
    <path
       style="fill:#c8b7b7"
       d="m 251.33333,466.00346 v -6.6632 l -16,-2.32881 c -8.8,-1.28085 -23.56922,-3.85249 -32.8205,-5.71475 -19.28989,-3.88302 -36.11667,-5.99165 -39.90586,-5.00076 -3.51014,0.91793 -3.29183,3.86051 0.46923,6.32486 1.69191,1.10858 13.54191,4.41091 26.33333,7.3385 12.79143,2.9276 29.85714,7.12056 37.9238,9.31769 8.06667,2.19713 16.76667,3.85864 19.33334,3.69223 l 4.66666,-0.30255 z"
       id="path8"
       transform="translate(-58.73679,-10.954665)" />
    <path
       style="fill:#808000"
       d="m 187.58927,559.87391 c 11.39259,-3.73601 27.03037,-9.13601 34.75062,-12 7.72024,-2.86398 14.56176,-5.20724 15.20336,-5.20724 0.64161,0 2.16798,2.1 3.39194,4.66666 4.26892,8.95203 6.4068,5.90342 12.53939,-17.88115 2.17783,-8.44645 4.43653,-15.67856 5.01933,-16.07135 1.24647,-0.84007 4.56126,-18.6436 4.7256,-25.38083 0.0978,-4.0098 -0.35537,-4.72817 -3.21951,-5.10362 -1.83333,-0.24032 -17.43333,-3.71759 -34.66667,-7.72728 -37.89082,-8.81607 -61.55353,-13.83577 -65.22139,-13.83577 -1.83157,0 -3.60726,1.73054 -5.41835,5.28057 -3.55616,6.97064 -18.62875,67.59928 -19.61583,78.90352 -0.73281,8.39237 -0.59844,8.96502 2.59454,11.05714 1.85205,1.21351 6.48538,2.69927 10.29628,3.3017 4.15184,0.65631 8.0702,2.2366 9.77646,3.94286 1.56616,1.56615 4.2612,2.84755 5.98899,2.84755 1.72779,0 12.46265,-3.05674 23.85524,-6.79276 z"
       id="path9"
       transform="translate(-58.73679,-10.954665)" />
    <g
       id="text">
      <path
         style="fill:#d45500"
         d="m 590.66667,199.58279 c 0,-0.9628 1.84203,-3.5128 4.09339,-5.66667 5.42887,-5.19375 9.65298,-12.16911 8.49953,-14.03544 -0.58202,-0.94173 -2.85322,-1.1934 -6.09372,-0.67522 -4.03961,0.64596 -5.16587,0.39681 -5.16587,-1.14279 0,-4.48769 9.29973,-6.20508 14.36999,-2.65373 4.50696,3.15679 3.71357,7.83674 -2.46486,14.53955 l -5.42821,5.88891 5.75004,0.41463 c 4.21354,0.30384 5.86831,1.03814 6.19264,2.74797 0.38995,2.05578 -0.75853,2.33333 -9.65517,2.33333 -7.44737,0 -10.09776,-0.45947 -10.09776,-1.75054 z"
         id="path14"
         transform="translate(-58.73679,-10.954665)" />
      <path
         id="path13"
         style="fill:#ffcc00"
         d="M 466.66648 189.33357 L 466.66648 192.66756 L 466.66648 195.99959 L 480.66648 195.99959 L 494.66648 195.99959 L 494.66648 192.66756 L 494.66648 189.33357 L 480.66648 189.33357 L 466.66648 189.33357 z M 466.66648 199.99959 L 466.66648 203.33357 L 466.66648 206.66756 L 480.66648 206.66756 L 494.66648 206.66756 L 494.66648 203.33357 L 494.66648 199.99959 L 480.66648 199.99959 L 466.66648 199.99959 z "
         transform="translate(-58.73679,-10.954665)" />
      <path
         style="fill:#0000ff"
         d="m 563.66664,217.25861 c -8.49994,-5.06767 -8.22533,-24.16608 0.4117,-28.63246 4.01754,-2.07755 14.16161,-2.61348 16.87153,-0.89136 0.90787,0.57694 1.27908,2.31768 0.84678,3.97084 -0.67874,2.59549 -1.38143,2.84574 -5.94265,2.11637 -7.0579,-1.1286 -9.18733,0.92141 -9.18733,8.84467 0,7.92729 2.11469,9.93732 9.42341,8.95702 5.21005,-0.69882 5.3836,-0.60047 4.98724,2.82615 -0.38379,3.31793 -0.89036,3.57141 -7.74399,3.87504 -4.03333,0.17869 -8.38334,-0.30113 -9.66669,-1.06627 z"
         id="path12"
         transform="translate(-58.73679,-10.954665)" />
      <path
         style="fill:#00ff00"
         d="m 501.33333,202.66667 v -16 h 4 c 2.73143,0 4,0.65826 4,2.0756 0,1.87859 0.28129,1.87859 2.96334,0 3.74811,-2.62527 11.58517,-2.67667 15.26373,-0.10011 2.49149,1.74511 3.01162,1.74511 4.45994,0 1.71158,-2.06233 11.46648,-2.72246 14.11339,-0.95508 3.28083,2.19067 4.53294,7.40908 4.53294,18.89193 v 12.08766 h -4.61664 -4.61663 l -0.38337,-12.33334 c -0.37118,-11.94147 -0.4869,-12.34794 -3.64199,-12.79329 -5.06843,-0.71541 -6.74137,2.93622 -6.74137,14.7148 v 10.41183 h -4.61664 -4.61663 l -0.38337,-12.33334 c -0.37118,-11.94147 -0.4869,-12.34794 -3.64199,-12.79329 -5.06843,-0.71541 -6.74137,2.93622 -6.74137,14.7148 v 10.41183 H 506 501.33333 Z"
         id="path11"
         transform="translate(-58.73679,-10.954665)" />
      <path
         style="fill:#ff0000"
         d="m 436,198 v -20.66667 h 12 c 11.91111,0 12,0.0247 12,3.33334 0,3.15151 -0.4,3.33333 -7.33333,3.33333 h -7.33334 v 4.66667 4.66666 H 452 c 6.22222,0 6.66667,0.22223 6.66667,3.33334 0,3.11111 -0.44445,3.33333 -6.66667,3.33333 h -6.66667 v 6 6 h 7.33334 C 459.6,212 460,212.18182 460,215.33333 c 0,3.30865 -0.0889,3.33334 -12,3.33334 h -12 z"
         id="path10"
         transform="translate(-58.73679,-10.954665)" />
    </g>
  </g>
</svg>
